# xmcd
#
# Track frame offsets: 
#        150
#        32712
#        64942
#        82795
#        107635
#        137100
#        186905
#        225200
#        254507
#        283660
#        328750
#
# Disc length: 4628 seconds
#
# Revision: 0
# Processed by: cddbd v1.5.2PL0 Copyright (c) Steve Scherf et al.
# Submitted via: ExactAudioCopyFreeDBPlugin 1.0
#
DISCID=9512120b
DTITLE=James Brown - Dead On The Heavy Funk CD2
DYEAR=1998
DGENRE=Funk
TTITLE0=Jam 1980s [Live Version]
TTITLE1=The Spank
TTITLE2=Nature Part 1
TTITLE3=Eyesight
TTITLE4=I Never Never Will Forget [Previously Unreleased Long Version]
TTITLE5=For Goodness Sakes, Look At Those Cakes
TTITLE6=A Man Understands
TTITLE7=It's Too Funky In Here [12" Version]
TTITLE8=Regrets
TTITLE9=Rapp Payback (Where Iz Moses?) [12" Version]
TTITLE10=Bring It On...Bring It On
EXTD=YEAR: 1998
EXTT0=
EXTT1=
EXTT2=
EXTT3=
EXTT4=
EXTT5=
EXTT6=
EXTT7=
EXTT8=
EXTT9=
EXTT10=
PLAYORDER=
